<svg width="201" height="201" viewBox="0 0 201 201" fill="none" xmlns="http://www.w3.org/2000/svg">
<path d="M171.333 85.8701H147.25C127.5 85.8701 111.416 69.7868 111.416 50.0368V25.9535C111.416 21.3701 107.666 17.6201 103.083 17.6201H67.7497C42.083 17.6201 21.333 34.2868 21.333 64.0368V137.87C21.333 167.62 42.083 184.287 67.7497 184.287H133.25C158.916 184.287 179.666 167.62 179.666 137.87V94.2035C179.666 89.6201 175.916 85.8701 171.333 85.8701ZM96.583 113.703C95.333 114.953 93.7497 115.537 92.1663 115.537C90.583 115.537 88.9997 114.953 87.7497 113.703L81.7497 107.703V142.62C81.7497 146.037 78.9163 148.87 75.4997 148.87C72.083 148.87 69.2497 146.037 69.2497 142.62V107.703L63.2497 113.703C60.833 116.12 56.833 116.12 54.4163 113.703C53.254 112.527 52.6022 110.94 52.6022 109.287C52.6022 107.633 53.254 106.046 54.4163 104.87L71.083 88.2035C71.6663 87.7035 72.2497 87.2868 72.9163 86.9535C73.083 86.8701 73.333 86.7868 73.4997 86.7035C73.9997 86.5368 74.4997 86.4535 75.083 86.3701H75.7497C76.4163 86.3701 77.083 86.5368 77.7497 86.7868H77.9163C78.583 87.0368 79.2497 87.5368 79.7497 88.0368C79.833 88.1201 79.9163 88.1201 79.9163 88.2035L96.583 104.87C98.9997 107.287 98.9997 111.287 96.583 113.703Z" fill="white"/>
<path d="M145.75 74.3709C153.667 74.4542 164.667 74.4542 174.083 74.4542C178.833 74.4542 181.333 68.8709 178 65.5375C166 53.4542 144.5 31.7042 132.167 19.3709C128.75 15.9542 122.833 18.2875 122.833 23.0375V52.1209C122.833 64.2875 133.167 74.3709 145.75 74.3709Z" fill="white"/>
</svg>
