<svg width="24" height="24" viewBox="0 0 24 24" fill="none" xmlns="http://www.w3.org/2000/svg">
<path d="M11 2H9C4 2 2 4 2 9V15C2 20 4 22 9 22H15C20 22 22 20 22 15V13" stroke="white" stroke-width="1.5" stroke-linecap="round" stroke-linejoin="round"/>
<path d="M16.0399 3.02025L8.15988 10.9003C7.85988 11.2003 7.55988 11.7903 7.49988 12.2203L7.06988 15.2303C6.90988 16.3203 7.67988 17.0803 8.76988 16.9303L11.7799 16.5003C12.1999 16.4403 12.7899 16.1403 13.0999 15.8403L20.9799 7.96025C22.3399 6.60025 22.9799 5.02025 20.9799 3.02025C18.9799 1.02025 17.3999 1.66025 16.0399 3.02025V3.02025Z" stroke="white" stroke-width="1.5" stroke-miterlimit="10" stroke-linecap="round" stroke-linejoin="round"/>
<path d="M14.9102 4.15039C15.2417 5.32786 15.8701 6.40046 16.7351 7.26544C17.6001 8.13042 18.6727 8.7588 19.8502 9.09039" stroke="white" stroke-width="1.5" stroke-miterlimit="10" stroke-linecap="round" stroke-linejoin="round"/>
</svg>
