<svg width="25" height="24" viewBox="0 0 25 24" fill="none" xmlns="http://www.w3.org/2000/svg">
<path d="M12.506 22C18.029 22 22.506 17.523 22.506 12C22.506 6.477 18.029 2 12.506 2C6.98298 2 2.50598 6.477 2.50598 12C2.50598 17.523 6.98298 22 12.506 22Z" stroke="white" stroke-width="1.5" stroke-linecap="round" stroke-linejoin="round"/>
<path d="M8.50593 3H9.50593C7.55597 8.84157 7.55597 15.1584 9.50593 21H8.50593M15.5059 3C17.4559 8.84157 17.4559 15.1584 15.5059 21" stroke="white" stroke-width="1.5" stroke-linecap="round" stroke-linejoin="round"/>
<path d="M3.50598 16.0001V15.0001C9.34755 16.95 15.6644 16.95 21.506 15.0001V16.0001M3.50598 9.00007C9.34755 7.05011 15.6644 7.05011 21.506 9.00007" stroke="white" stroke-width="1.5" stroke-linecap="round" stroke-linejoin="round"/>
</svg>
