<svg width="74" height="32" viewBox="0 0 74 32" fill="none" xmlns="http://www.w3.org/2000/svg">
<path d="M25.0178 7.58081H40.4007L36.5845 17.8303H23.4159L26.337 10.3911H15.8305L7.18497 31.7638H0L11.6844 2.97564L8.73972 0.141692H19.6467L16.8905 7.58081L30.2711 0.141692H38.1628L25.0178 7.58081Z" fill="white"/>
<path d="M14.7695 19.5098L10.0637 32H31.188L35.9145 19.5098H14.7695ZM20.1801 22.0037H28.6381L25.7773 29.5061H17.34L20.1801 22.0037Z" fill="white"/>
<path d="M73.2632 8.02952L65.4742 27.5129H44.2217L51.99 8.02952H73.2632ZM51.4981 25.019H59.9354L65.4742 11.572H57.0162L51.4981 25.019Z" fill="white"/>
<path d="M64.9239 29.166L63.8402 32H33.4513L44.1699 4.13284L40.9897 1.77122L53.3573 0L41.72 29.166H64.9239Z" fill="white"/>
</svg>
